<svg xmlns="http://www.w3.org/2000/svg" viewBox="0 0 12 12" shape-rendering="crispEdges"><rect width="12" height="12" rx="2.5" fill="#2b84ea" shape-rendering="geometricPrecision"/><rect x="4" y="1" width="5" height="1" fill="#2b211c"/><rect x="3" y="2" width="2" height="1" fill="#2b211c"/><rect x="5" y="2" width="2" height="1" fill="#5a4334"/><rect x="7" y="2" width="3" height="1" fill="#2b211c"/><rect x="2" y="3" width="2" height="1" fill="#2b211c"/><rect x="4" y="3" width="1" height="1" fill="#5a4334"/><rect x="5" y="3" width="5" height="1" fill="#2b211c"/><rect x="2" y="4" width="3" height="1" fill="#2b211c"/><rect x="5" y="4" width="4" height="1" fill="#f1c3a0"/><rect x="9" y="4" width="1" height="1" fill="#2b211c"/><rect x="2" y="5" width="1" height="1" fill="#2b211c"/><rect x="3" y="5" width="6" height="1" fill="#f1c3a0"/><rect x="9" y="5" width="1" height="1" fill="#2b211c"/><rect x="1" y="6" width="1" height="1" fill="#d59c7c"/><rect x="2" y="6" width="1" height="1" fill="#f1c3a0"/><rect x="3" y="6" width="2" height="1" fill="#2b211c"/><rect x="5" y="6" width="2" height="1" fill="#f1c3a0"/><rect x="7" y="6" width="2" height="1" fill="#2b211c"/><rect x="9" y="6" width="1" height="1" fill="#f1c3a0"/><rect x="10" y="6" width="1" height="1" fill="#d59c7c"/><rect x="2" y="7" width="3" height="1" fill="#f1c3a0"/><rect x="5" y="7" width="2" height="1" fill="#d59c7c"/><rect x="7" y="7" width="3" height="1" fill="#f1c3a0"/><rect x="2" y="8" width="2" height="1" fill="#f1c3a0"/><rect x="4" y="8" width="4" height="1" fill="#2b211c"/><rect x="8" y="8" width="2" height="1" fill="#f1c3a0"/><rect x="2" y="9" width="1" height="1" fill="#d59c7c"/><rect x="3" y="9" width="1" height="1" fill="#f1c3a0"/><rect x="4" y="9" width="1" height="1" fill="#d59c7c"/><rect x="5" y="9" width="2" height="1" fill="#fbf8f2"/><rect x="7" y="9" width="1" height="1" fill="#d59c7c"/><rect x="8" y="9" width="1" height="1" fill="#f1c3a0"/><rect x="9" y="9" width="1" height="1" fill="#d59c7c"/><rect x="3" y="10" width="6" height="1" fill="#d59c7c"/></svg>
